<?xml version="1.0" encoding="iso-8859-1"?>
<!-- Uploaded to: SVG Repo, www.svgrepo.com, Generator: SVG Repo Mixer Tools -->
<svg fill="#000000" height="800px" width="800px" version="1.1" id="Layer_1" xmlns="http://www.w3.org/2000/svg" xmlns:xlink="http://www.w3.org/1999/xlink" 
	 viewBox="0 0 512 512" xml:space="preserve">
<g>
	<g>
		<g>
			<path d="M58.846,219.494l88.909-95.258c5.367-5.743,12.954-9.037,20.804-9.037H512V72.533c0-4.719-3.814-8.533-8.533-8.533
				H136.661c-7.859,0-15.437,3.294-20.804,9.037L7.646,188.979C2.714,194.27,0,201.156,0,208.384v68.949v162.133
				C0,444.186,3.823,448,8.533,448h494.933c4.719,0,8.533-3.814,8.533-8.533V277.333V132.267H168.559
				c-3.149,0-6.187,1.314-8.337,3.618L71.33,231.134c-1.98,2.116-3.063,4.873-3.063,7.765V268.8H51.2v-29.901
				C51.2,231.671,53.914,224.785,58.846,219.494z M59.733,285.867h435.2v145.067H17.067V285.867H59.733z"/>
			<path d="M230.4,354.133c2.185,0,4.369-0.836,6.033-2.5l11.034-11.034V396.8c0,4.719,3.823,8.533,8.533,8.533
				s8.533-3.814,8.533-8.533V340.6l11.034,11.034c1.664,1.664,3.849,2.5,6.033,2.5c2.185,0,4.369-0.836,6.033-2.5
				c3.337-3.336,3.337-8.73,0-12.066l-25.591-25.591c-0.794-0.794-1.732-1.417-2.782-1.852c-2.082-0.862-4.437-0.862-6.519,0
				c-1.05,0.435-1.988,1.058-2.782,1.852l-25.591,25.591c-3.337,3.336-3.337,8.73,0,12.066
				C226.031,353.297,228.215,354.133,230.4,354.133z"/>
		</g>
	</g>
</g>
</svg>